<svg xmlns="http://www.w3.org/2000/svg" width="40" height="40" viewBox="0 0 40 40">
  <g id="planed_ico" transform="translate(-32 -596)">
    <g id="Pfad_107253" data-name="Pfad 107253" transform="translate(32 596)" fill="none">
      <path d="M20,0A20,20,0,1,1,0,20,20,20,0,0,1,20,0Z" stroke="none"/>
      <path d="M 20 2 C 15.19202041625977 2 10.67182922363281 3.872329711914062 7.272079467773438 7.272079467773438 C 3.872329711914062 10.67182922363281 2 15.19202041625977 2 20 C 2 24.80797958374023 3.872329711914062 29.32817077636719 7.272079467773438 32.72792053222656 C 10.67182922363281 36.12767028808594 15.19202041625977 38 20 38 C 24.80797958374023 38 29.32817077636719 36.12767028808594 32.72792053222656 32.72792053222656 C 36.12767028808594 29.32817077636719 38 24.80797958374023 38 20 C 38 15.19202041625977 36.12767028808594 10.67182922363281 32.72792053222656 7.272079467773438 C 29.32817077636719 3.872329711914062 24.80797958374023 2 20 2 M 20 0 C 31.04570007324219 0 40 8.954299926757812 40 20 C 40 31.04570007324219 31.04570007324219 40 20 40 C 8.954299926757812 40 0 31.04570007324219 0 20 C 0 8.954299926757812 8.954299926757812 0 20 0 Z" stroke="none" fill="#a9b4c2"/>
    </g>
    <g id="question_mark_black_24dp" transform="translate(40 604)">
      <rect id="Rechteck_28416" data-name="Rechteck 28416" width="24" height="24" fill="none"/>
      <rect id="Rechteck_28500" data-name="Rechteck 28500" width="3" height="15" transform="matrix(0.966, -0.259, 0.259, 0.966, 6.11, 1.511)" fill="#a9b4c2"/>
      <rect id="Rechteck_28501" data-name="Rechteck 28501" width="3" height="12" transform="translate(22 13) rotate(90)" fill="#a9b4c2"/>
    </g>
  </g>
</svg>
