<svg xmlns="http://www.w3.org/2000/svg" width="40" height="40" viewBox="0 0 40 40">
  <g id="unknown_ico" transform="translate(-32 -596)">
    <g id="Pfad_107253" data-name="Pfad 107253" transform="translate(32 596)" fill="none">
      <path d="M20,0A20,20,0,1,1,0,20,20,20,0,0,1,20,0Z" stroke="none"/>
      <path d="M 20 2 C 15.19202041625977 2 10.67182922363281 3.872329711914062 7.272079467773438 7.272079467773438 C 3.872329711914062 10.67182922363281 2 15.19202041625977 2 20 C 2 24.80797958374023 3.872329711914062 29.32817077636719 7.272079467773438 32.72792053222656 C 10.67182922363281 36.12767028808594 15.19202041625977 38 20 38 C 24.80797958374023 38 29.32817077636719 36.12767028808594 32.72792053222656 32.72792053222656 C 36.12767028808594 29.32817077636719 38 24.80797958374023 38 20 C 38 15.19202041625977 36.12767028808594 10.67182922363281 32.72792053222656 7.272079467773438 C 29.32817077636719 3.872329711914062 24.80797958374023 2 20 2 M 20 0 C 31.04570007324219 0 40 8.954299926757812 40 20 C 40 31.04570007324219 31.04570007324219 40 20 40 C 8.954299926757812 40 0 31.04570007324219 0 20 C 0 8.954299926757812 8.954299926757812 0 20 0 Z" stroke="none" fill="#a9b4c2"/>
    </g>
    <g id="question_mark_black_24dp" transform="translate(40 604)">
      <g id="Gruppe_19724" data-name="Gruppe 19724">
        <rect id="Rechteck_28416" data-name="Rechteck 28416" width="24" height="24" fill="none"/>
      </g>
      <g id="Gruppe_19725" data-name="Gruppe 19725">
        <path id="Pfad_107248" data-name="Pfad 107248" d="M11.07,12.85c.77-1.39,2.25-2.21,3.11-3.44A2.356,2.356,0,0,0,12,5.71,3.04,3.04,0,0,0,9.13,8.05L6.54,6.96A5.659,5.659,0,0,1,11.99,3a5.37,5.37,0,0,1,4.78,2.41,4.806,4.806,0,0,1,.03,4.9c-1.2,1.77-2.35,2.31-2.97,3.45-.25.46-.35.76-.35,2.24H10.59A6.045,6.045,0,0,1,11.07,12.85ZM14,20a2,2,0,1,1-2-2A2.006,2.006,0,0,1,14,20Z" fill="#a9b4c2"/>
      </g>
    </g>
  </g>
</svg>
