<svg xmlns="http://www.w3.org/2000/svg" width="36" height="36" viewBox="0 0 36 36">
  <g id="akita_ico" transform="translate(-80 -736)">
    <rect id="Rechteck_28447" data-name="Rechteck 28447" width="36" height="36" transform="translate(80 736)" fill="#fff" opacity="0"/>
    <g id="akita_ico-2" data-name="akita_ico" transform="translate(80.246 736.249)">
      <path id="Pfad_107228" data-name="Pfad 107228" d="M0,0H35.507V35.507H0Z" transform="translate(0 -0.003)" fill="none"/>
      <g id="Gruppe_19750" data-name="Gruppe 19750" transform="translate(5.3 -0.248)">
        <g id="Gruppe_19768" data-name="Gruppe 19768">
          <path id="Pfad_107285" data-name="Pfad 107285" d="M9.525,11.949A2.962,2.962,0,0,1,6.566,8.99a.74.74,0,0,1,1.479,0,1.481,1.481,0,0,0,1.479,1.479,1.466,1.466,0,0,0,.552-.106.74.74,0,1,1,.555,1.371A2.938,2.938,0,0,1,9.525,11.949Z" transform="translate(3.766 4.571)" fill="#ece2f9"/>
          <path id="Pfad_107286" data-name="Pfad 107286" d="M6.025,11.95a2.958,2.958,0,0,1-.9-.14.74.74,0,0,1,.45-1.409A1.481,1.481,0,0,0,7.5,8.991a.74.74,0,1,1,1.479,0A2.962,2.962,0,0,1,6.025,11.95Z" transform="translate(2.828 4.571)" fill="#ece2f9"/>
          <path id="Pfad_107287" data-name="Pfad 107287" d="M13.768,26.152H12.288a.986.986,0,1,1,0-1.973h1.479a4.2,4.2,0,0,0,4.192-4.192.986.986,0,0,1,1.973,0A6.171,6.171,0,0,1,13.768,26.152Z" transform="translate(6.16 9.848)" fill="#ece2f9"/>
          <path id="Linie_1878" data-name="Linie 1878" d="M-.014,8.37A.986.986,0,0,1-1,7.383v-7.4A.986.986,0,0,1-.014-1a.986.986,0,0,1,.986.986v7.4A.986.986,0,0,1-.014,8.37Z" transform="translate(7.366 27.63)" fill="#ece2f9"/>
          <path id="Linie_1879" data-name="Linie 1879" d="M-.014,8.37A.986.986,0,0,1-1,7.383v-7.4A.986.986,0,0,1-.014-1a.986.986,0,0,1,.986.986v7.4A.986.986,0,0,1-.014,8.37Z" transform="translate(14.763 27.63)" fill="#ece2f9"/>
          <path id="Pfad_107288" data-name="Pfad 107288" d="M18.459,15.037c-.36,0-16.011.02-16.306-.078A3.03,3.03,0,0,1,.528,13,14.411,14.411,0,0,1-.251,9.967,15.622,15.622,0,0,1,0,3.134C.559,1.448,1.444.452,2.627.172A3.815,3.815,0,0,1,5.634.946a9.079,9.079,0,0,1,9.83,0A3.814,3.814,0,0,1,18.471.172c1.183.279,2.068,1.276,2.63,2.962a15.622,15.622,0,0,1,.248,6.833A14.411,14.411,0,0,1,20.57,13a3.03,3.03,0,0,1-1.624,1.955A1.556,1.556,0,0,1,18.459,15.037Z" transform="translate(0.501 0.5)" fill="#ece2f9"/>
          <path id="Ellipse_9820" data-name="Ellipse 9820" d="M2.209-.75c1.659,0,2.959.975,2.959,2.219s-1.3,2.219-2.959,2.219S-.75,2.714-.75,1.469.55-.75,2.209-.75Zm0,2.959c.9,0,1.479-.438,1.479-.74S3.112.729,2.209.729s-1.479.438-1.479.74S1.306,2.209,2.209,2.209Z" transform="translate(8.841 9.873)" fill="#ece2f9"/>
          <path id="Pfad_107289" data-name="Pfad 107289" d="M17.322,31.322H2.528A1.728,1.728,0,0,1,.8,29.6v-7.48a.986.986,0,0,1,.03-.24,8.1,8.1,0,0,1,1.675-3.954A13.713,13.713,0,0,1,5.24,15.113v-.447c-1.048-.745-3.414-2.73-3.414-5.464,0-.545,16.165-.545,16.165,0,0,2.728-2.328,4.713-3.36,5.459v.451a13.7,13.7,0,0,1,2.735,2.809,7.76,7.76,0,0,1,1.683,4.229V29.6A1.728,1.728,0,0,1,17.322,31.322Z" transform="translate(1.126 4.678)" fill="#ece2f9"/>
        </g>
        <path id="Linie_1876" data-name="Linie 1876" d="M.037.973h-.05A.986.986,0,0,1-1-.014.986.986,0,0,1-.014-1h.05a.986.986,0,0,1,.986.986A.986.986,0,0,1,.037.973Z" transform="translate(7.454 6.936)" fill="#6800d8"/>
        <path id="Linie_1877" data-name="Linie 1877" d="M.037.973h-.05A.986.986,0,0,1-1-.014.986.986,0,0,1-.014-1h.05a.986.986,0,0,1,.986.986A.986.986,0,0,1,.037.973Z" transform="translate(14.634 6.936)" fill="#6800d8"/>
        <g id="Gruppe_19751" data-name="Gruppe 19751" transform="translate(0)">
          <path id="Pfad_107285-2" data-name="Pfad 107285" d="M9.525,11.949A2.962,2.962,0,0,1,6.566,8.99a.74.74,0,0,1,1.479,0,1.481,1.481,0,0,0,1.479,1.479,1.466,1.466,0,0,0,.552-.106.74.74,0,1,1,.555,1.371A2.938,2.938,0,0,1,9.525,11.949Z" transform="translate(3.766 4.571)" fill="#6800d8"/>
          <path id="Pfad_107286-2" data-name="Pfad 107286" d="M6.025,11.95a2.958,2.958,0,0,1-.9-.14.74.74,0,0,1,.45-1.409A1.481,1.481,0,0,0,7.5,8.991a.74.74,0,1,1,1.479,0A2.962,2.962,0,0,1,6.025,11.95Z" transform="translate(2.828 4.571)" fill="#6800d8"/>
          <path id="Pfad_107287-2" data-name="Pfad 107287" d="M13.768,26.152H12.288a.986.986,0,1,1,0-1.973h1.479a4.2,4.2,0,0,0,4.192-4.192.986.986,0,0,1,1.973,0A6.171,6.171,0,0,1,13.768,26.152Z" transform="translate(6.16 9.848)" fill="#6800d8"/>
          <path id="Linie_1878-2" data-name="Linie 1878" d="M-.014,8.37A.986.986,0,0,1-1,7.383v-7.4A.986.986,0,0,1-.014-1a.986.986,0,0,1,.986.986v7.4A.986.986,0,0,1-.014,8.37Z" transform="translate(7.366 27.63)" fill="#6800d8"/>
          <path id="Linie_1879-2" data-name="Linie 1879" d="M-.014,8.37A.986.986,0,0,1-1,7.383v-7.4A.986.986,0,0,1-.014-1a.986.986,0,0,1,.986.986v7.4A.986.986,0,0,1-.014,8.37Z" transform="translate(14.763 27.63)" fill="#6800d8"/>
          <path id="Pfad_107288-2" data-name="Pfad 107288" d="M18.459,15.037a1.677,1.677,0,0,1-1.277-.629,5.094,5.094,0,0,1-.911-1.773c-1.625-4.876.043-6.732.238-6.927a1.234,1.234,0,0,1,1.278.133c.528.488.117,1.262.117,1.262a.266.266,0,0,0,.03-.031c-.01.012-1.012,1.279.209,4.94a5.228,5.228,0,0,0,.336.814,10.377,10.377,0,0,0,.966-3.456,13.644,13.644,0,0,0-.215-5.61c-.186-.559-.592-1.52-1.212-1.666-.686-.162-1.6.582-1.811.79a.986.986,0,0,1-1.3.084,7.141,7.141,0,0,0-8.716,0,.986.986,0,0,1-1.3-.084c-.258-.253-1.151-.948-1.814-.789-.458.11-.887.7-1.209,1.665a13.644,13.644,0,0,0-.215,5.61,10.377,10.377,0,0,0,.966,3.456,5.229,5.229,0,0,0,.336-.814,11.524,11.524,0,0,0-.021-5.364.986.986,0,0,1,1.912-.484,13.357,13.357,0,0,1-.02,6.472,5.094,5.094,0,0,1-.911,1.773,1.606,1.606,0,0,1-1.764.551A3.03,3.03,0,0,1,.528,13,14.411,14.411,0,0,1-.251,9.967,15.622,15.622,0,0,1,0,3.134C.559,1.448,1.444.452,2.627.172A3.815,3.815,0,0,1,5.634.946a9.079,9.079,0,0,1,9.83,0A3.814,3.814,0,0,1,18.471.172c1.183.279,2.068,1.276,2.63,2.962a15.622,15.622,0,0,1,.248,6.833A14.411,14.411,0,0,1,20.57,13a3.03,3.03,0,0,1-1.624,1.955A1.556,1.556,0,0,1,18.459,15.037Z" transform="translate(0.501 0.5)" fill="#6800d8"/>
          <path id="Ellipse_9820-2" data-name="Ellipse 9820" d="M2.209-.75c1.659,0,2.959.975,2.959,2.219s-1.3,2.219-2.959,2.219S-.75,2.714-.75,1.469.55-.75,2.209-.75Zm0,2.959c.9,0,1.479-.438,1.479-.74S3.112.729,2.209.729s-1.479.438-1.479.74S1.306,2.209,2.209,2.209Z" transform="translate(8.841 9.873)" fill="#6800d8"/>
          <path id="Pfad_107289-2" data-name="Pfad 107289" d="M17.322,31.322H2.528A1.728,1.728,0,0,1,.8,29.6v-7.48a.986.986,0,0,1,.03-.24,8.1,8.1,0,0,1,1.675-3.954A13.713,13.713,0,0,1,5.24,15.113v-.447c-1.048-.745-3.414-2.73-3.414-5.464A.986.986,0,1,1,3.8,9.2c0,2.287,2.9,4.069,2.931,4.087a.986.986,0,0,1,.484.849v1.487a.986.986,0,0,1-.445.824C4.931,17.655,2.8,20.408,2.8,22.15a.987.987,0,0,1-.021.2v7h14.3v-7.2c0-1.743-2.135-4.5-3.972-5.7a.986.986,0,0,1-.445-.825V14.138a.986.986,0,0,1,.478-.845c.027-.016,2.882-1.779,2.882-4.09a.986.986,0,1,1,1.973,0c0,2.728-2.328,4.713-3.36,5.459v.451a13.7,13.7,0,0,1,2.735,2.809,7.76,7.76,0,0,1,1.683,4.229V29.6A1.728,1.728,0,0,1,17.322,31.322Z" transform="translate(1.126 4.678)" fill="#6800d8"/>
        </g>
      </g>
      <ellipse id="Ellipse_9821" data-name="Ellipse 9821" cx="1.973" cy="1.486" rx="1.973" ry="1.486" transform="translate(14.401 9.86)" fill="#6800d8"/>
    </g>
  </g>
</svg>
