<svg xmlns="http://www.w3.org/2000/svg" width="36" height="36" viewBox="0 0 36 36">
  <g id="audio_ico" transform="translate(-80 -988)">
    <rect id="Rechteck_28449" data-name="Rechteck 28449" width="36" height="36" transform="translate(80 988)" fill="#fff" opacity="0"/>
    <path id="Pfad_107302" data-name="Pfad 107302" d="M0,0H32V20H27.216l-1.133-2.873H5.967L4.8,20H0Z" transform="translate(82 995)" fill="#ece2f9"/>
    <path id="Pfad_107302-2" data-name="Pfad 107302" d="M34.5,22.588H29.281a1,1,0,1,1,0-2H33.5V1.5H1.5V20.584H5.719a1,1,0,1,1,0,2H.5a1,1,0,0,1-1-1V.5a1,1,0,0,1,1-1h34a1,1,0,0,1,1,1V21.586A1,1,0,0,1,34.5,22.588Z" transform="translate(80.5 994.379)" fill="#6800d8"/>
    <path id="Pfad_107303" data-name="Pfad 107303" d="M27.061,21.291H6.253a2.119,2.119,0,0,1-1.625-.767,1.58,1.58,0,0,1-.337-1.289l.488-4.261a1,1,0,0,1,.019-.11A1.91,1.91,0,0,1,6.745,13.5H26.559a1.906,1.906,0,0,1,1.947,1.356,1,1,0,0,1,.018.106c.523,4.438.523,4.5.523,4.573A1.884,1.884,0,0,1,27.061,21.291ZM6.734,15.5,6.3,19.288H27.012c-.081-.717-.284-2.45-.441-3.785H6.734Z" transform="translate(81.335 996.83)" fill="#6800d8"/>
    <path id="Pfad_107304" data-name="Pfad 107304" d="M8.436,4.425h16.4a4.009,4.009,0,1,1,0,8.017H8.436a4.009,4.009,0,1,1,0-8.017Zm16.4,6.014a2.005,2.005,0,1,0,0-4.011H8.436a2.005,2.005,0,1,0,0,4.011Z" transform="translate(81.364 995.242)" fill="#6800d8"/>
    <path id="Ellipse_9832" data-name="Ellipse 9832" d="M3.009-1A4.009,4.009,0,1,1-1,3.009,4.013,4.013,0,0,1,3.009-1Zm0,6.014A2.005,2.005,0,1,0,1,3.009,2.008,2.008,0,0,0,3.009,5.014Z" transform="translate(86.791 1000.667)" fill="#6800d8"/>
    <path id="Ellipse_9833" data-name="Ellipse 9833" d="M3.009-1A4.009,4.009,0,1,1-1,3.009,4.013,4.013,0,0,1,3.009-1Zm0,6.014A2.005,2.005,0,1,0,1,3.009,2.008,2.008,0,0,0,3.009,5.014Z" transform="translate(103.192 1000.667)" fill="#6800d8"/>
    <path id="Linie_1889" data-name="Linie 1889" transform="translate(90.171 1014.225)" fill="#6800d8"/>
    <path id="Linie_1890" data-name="Linie 1890" transform="translate(105.911 1014.225)" fill="#6800d8"/>
  </g>
</svg>
