<svg xmlns="http://www.w3.org/2000/svg" width="36" height="36" viewBox="0 0 36 36">
  <g id="books_ico" transform="translate(-261 -865)">
    <rect id="Rechteck_28450" data-name="Rechteck 28450" width="36" height="36" transform="translate(261 865)" fill="#fff" opacity="0"/>
    <g id="Gruppe_19771" data-name="Gruppe 19771" transform="translate(261.464 870.097)">
      <path id="Rechteck_28434" data-name="Rechteck 28434" d="M1,0H6.336a1,1,0,0,1,1,1V25.225a1,1,0,0,1-1,1H1a1,1,0,0,1-1-1V1A1,1,0,0,1,1,0ZM5.339,2H2V24.228H5.339Z" transform="translate(18.288 1.403) rotate(-16.734)" fill="#6800d8"/>
      <path id="Pfad_107303" data-name="Pfad 107303" d="M-7499.768-3378.146h4.943v-7.175h5.7v23.755h-10.642Z" transform="translate(7502.536 3386.903)" fill="#ece2f9"/>
      <path id="Pfad_107294" data-name="Pfad 107294" d="M14.274,9.991a1.75,1.75,0,1,1,1.75-1.75A1.752,1.752,0,0,1,14.274,9.991Z" transform="translate(2.702 2.284)" fill="#6800d8"/>
      <path id="Rechteck_28435" data-name="Rechteck 28435" d="M0-1H4.712a1,1,0,0,1,1,1V16.5a1,1,0,0,1-1,1H0a1,1,0,0,1-1-1V0A1,1,0,0,1,0-1ZM3.715,1H1V15.5h2.72Z" transform="translate(2.834 8.775)" fill="#6800d8"/>
      <path id="Rechteck_28436" data-name="Rechteck 28436" d="M0-1H5.891a1,1,0,0,1,1,1V23.571a1,1,0,0,1-1,1H0a1,1,0,0,1-1-1V0A1,1,0,0,1,0-1Zm4.9,2H1V22.574h3.9Z" transform="translate(7.549 1.703)" fill="#6800d8"/>
      <path id="Rechteck_28437" data-name="Rechteck 28437" d="M0-1H7.07a1,1,0,0,1,1,1V18.856a1,1,0,0,1-1,1H0a1,1,0,0,1-1-1V0A1,1,0,0,1,0-1ZM6.072,1H1V17.859H6.072Z" transform="translate(13.443 6.417)" fill="#6800d8"/>
      <path id="Linie_1887" data-name="Linie 1887" d="M34,1H0A1,1,0,0,1-1,0,1,1,0,0,1,0-1H34a1,1,0,0,1,1,1A1,1,0,0,1,34,1Z" transform="translate(0.536 25.276)" fill="#6800d8"/>
    </g>
  </g>
</svg>
