<svg xmlns="http://www.w3.org/2000/svg" xmlns:xlink="http://www.w3.org/1999/xlink" width="36" height="36" viewBox="0 0 36 36">
  <defs>
    <clipPath id="clip-path">
      <rect id="Rechteck_28499" data-name="Rechteck 28499" width="36" height="36" transform="translate(0 -4)" fill="none" stroke="#707070" stroke-width="2"/>
    </clipPath>
  </defs>
  <g id="fritz_ico" transform="translate(0 4)">
    <g id="Gruppe_19781" data-name="Gruppe 19781" transform="translate(0 0)" clip-path="url(#clip-path)">
      <path id="Pfad_107321" data-name="Pfad 107321" d="M111.375,563.492l-4.293,13.484,32.569-.4-4.6-13.081Z" transform="translate(-105 -560)" fill="#ece2f9"/>
      <path id="Pfad_107321-2" data-name="Pfad 107321" d="M.55,16.227A1,1,0,0,1-.41,14.947L3.418,1.776l0-.008A3.2,3.2,0,0,1,6.469-.5h21.5a3.163,3.163,0,0,1,3.05,2.268l0,.008,3.83,13.172a1,1,0,1,1-1.92.558L29.1,2.338A1.175,1.175,0,0,0,27.967,1.5H6.469a1.189,1.189,0,0,0-1.132.839L1.51,15.506A1,1,0,0,1,.55,16.227Z" transform="translate(0.823 2.913)" fill="#6800d8"/>
      <path id="Rechteck_28498" data-name="Rechteck 28498" d="M1.5-1H31.983a2.5,2.5,0,0,1,2.5,2.5V7.231a2.5,2.5,0,0,1-2.5,2.5H1.5A2.5,2.5,0,0,1-1,7.231V1.5A2.5,2.5,0,0,1,1.5-1ZM31.983,7.73a.5.5,0,0,0,.5-.5V1.5a.5.5,0,0,0-.5-.5H1.5a.5.5,0,0,0-.5.5V7.231a.5.5,0,0,0,.5.5Z" transform="translate(1.301 16.509)" fill="#6800d8"/>
      <path id="Linie_1880" data-name="Linie 1880" d="M2.911,1H0A1,1,0,0,1-1,0,1,1,0,0,1,0-1H2.911a1,1,0,0,1,1,1A1,1,0,0,1,2.911,1Z" transform="translate(5.65 20.874)" fill="#6800d8"/>
      <path id="Linie_1881" data-name="Linie 1881" d="M.084,1H0A1,1,0,0,1-1,0,1,1,0,0,1,0-1H.084a1,1,0,0,1,1,1A1,1,0,0,1,.084,1Z" transform="translate(11.473 20.874)" fill="#6800d8"/>
      <path id="Linie_1882" data-name="Linie 1882" d="M.084,1H0A1,1,0,0,1-1,0,1,1,0,0,1,0-1H.084a1,1,0,0,1,1,1A1,1,0,0,1,.084,1Z" transform="translate(30.398 20.874)" fill="#6800d8"/>
    </g>
  </g>
</svg>
