<svg xmlns="http://www.w3.org/2000/svg" width="36" height="36" viewBox="0 0 36 36">
  <g id="home_ico" transform="translate(2 2.449)">
    <rect id="Rechteck_28442" data-name="Rechteck 28442" width="36" height="36" transform="translate(-2 -2.449)" fill="#fff" opacity="0"/>
    <path id="Pfad_107301" data-name="Pfad 107301" d="M.033.217,13.9.375,28,.217,28,24H0Z" transform="translate(2 8.551)" fill="#ece2f9"/>
    <g id="Gruppe_19766" data-name="Gruppe 19766" transform="translate(-1.612 -1.785)">
      <path id="Pfad_107295" data-name="Pfad 107295" d="M24.307,12.24a4.444,4.444,0,0,1-3-1.118A4.1,4.1,0,0,1,20.9,10.7a4.553,4.553,0,0,1-6.4.424A4.1,4.1,0,0,1,14.1,10.7a4.551,4.551,0,0,1-6.4.423,4.1,4.1,0,0,1-.407-.425,4.437,4.437,0,0,1-3.413,1.541A4.442,4.442,0,0,1,.883,11.122,4.309,4.309,0,0,1-.5,7.8a.979.979,0,0,1,.2-.593L5.275-.114A.979.979,0,0,1,6.054-.5h22.92a.979.979,0,0,1,.78.388L35.3,7.209a.979.979,0,0,1,.2.591,4.268,4.268,0,0,1-4.38,4.437A4.432,4.432,0,0,1,27.711,10.7,4.422,4.422,0,0,1,24.307,12.24ZM21.883,7.8a2.4,2.4,0,0,0,.741,1.87,2.526,2.526,0,0,0,1.683.612A2.325,2.325,0,0,0,26.731,7.8a.979.979,0,1,1,1.958,0,2.326,2.326,0,0,0,2.431,2.48,2.3,2.3,0,0,0,2.408-2.169L28.487,1.458H6.539L1.471,8.113A2.292,2.292,0,0,0,2.2,9.67a2.518,2.518,0,0,0,1.679.61A2.329,2.329,0,0,0,6.31,7.8a.979.979,0,1,1,1.958,0,2.4,2.4,0,0,0,.741,1.87,2.525,2.525,0,0,0,1.682.612A2.325,2.325,0,0,0,13.116,7.8a.979.979,0,1,1,1.958,0,2.4,2.4,0,0,0,.741,1.87,2.527,2.527,0,0,0,1.683.612A2.326,2.326,0,0,0,19.925,7.8a.979.979,0,1,1,1.958,0Z" transform="translate(0.112 0.112)" fill="#6800d8"/>
      <path id="Pfad_107296" data-name="Pfad 107296" d="M30.784,34.66H3.233a.979.979,0,0,1-.979-.979V11.437a.979.979,0,1,1,1.958,0V32.7H29.806V11.437a.979.979,0,1,1,1.958,0V33.681A.979.979,0,0,1,30.784,34.66Z" transform="translate(0.657 0.4)" fill="#6800d8"/>
      <path id="Rechteck_28439" data-name="Rechteck 28439" d="M-.021-1H5.968a.979.979,0,0,1,.979.979V14.353a.979.979,0,0,1-.979.979H-.021A.979.979,0,0,1-1,14.353V-.021A.979.979,0,0,1-.021-1ZM4.989.958H.958V13.374H4.989Z" transform="translate(9.901 19.728)" fill="#6800d8"/>
      <path id="Rechteck_28440" data-name="Rechteck 28440" d="M-.021-1H4.77a.979.979,0,0,1,.979.979V4.77a.979.979,0,0,1-.979.979H-.021A.979.979,0,0,1-1,4.77V-.021A.979.979,0,0,1-.021-1ZM3.791.958H.958V3.791H3.791Z" transform="translate(20.682 19.728)" fill="#6800d8"/>
    </g>
  </g>
</svg>
