<svg xmlns="http://www.w3.org/2000/svg" width="36" height="36" viewBox="0 0 36 36">
  <g id="jdownloader_ico" transform="translate(-64 -428)">
    <rect id="Rechteck_28497" data-name="Rechteck 28497" width="36" height="36" transform="translate(64 428)" fill="#fff" opacity="0"/>
    <g id="Gruppe_19779" data-name="Gruppe 19779" transform="translate(-1.328 -0.942)">
      <path id="Pfad_107320" data-name="Pfad 107320" d="M69.616,450.99c-4.077-.763,10.567,9.2,10.567,9.2l.581,3.921,11.407-7.731-11.407-8.058v5.794A113.578,113.578,0,0,0,69.616,450.99Z" fill="#ece2f9"/>
      <path id="Pfad_107320-2" data-name="Pfad 107320" d="M.5,9.708a1,1,0,0,1,.984.828,10.591,10.591,0,0,0,1.683,3.805A8.676,8.676,0,0,0,10.673,18c.381,0,.774-.017,1.177-.051V14.3a1,1,0,0,1,1.581-.814l10.431,7.438a1,1,0,0,1,.006,1.624L13.437,30.108a1,1,0,0,1-1.587-.81V25.7a17.223,17.223,0,0,1-5.7-2.21A13.6,13.6,0,0,1,1.572,18.9,15.72,15.72,0,0,1-.5,10.708a1,1,0,0,1,.915-1C.444,9.709.472,9.708.5,9.708Zm21.066,12.04-7.717-5.5v2.6a1,1,0,0,1-.861.99A16.753,16.753,0,0,1,10.673,20,10.81,10.81,0,0,1,2.8,16.98a11.441,11.441,0,0,0,4.4,4.809,14.879,14.879,0,0,0,5.742,2.058,1,1,0,0,1,.906,1v2.5Z" transform="translate(68.115 434.592)" fill="#6800d8"/>
      <path id="Pfad_107321" data-name="Pfad 107321" d="M25.455,26.747a1,1,0,0,1-.7-1.716,13.713,13.713,0,1,0-23.2-11.344,1,1,0,0,1-1.988-.22,15.717,15.717,0,1,1,26.587,13A1,1,0,0,1,25.455,26.747Z" transform="translate(68.145 429.495)" fill="#6800d8"/>
      <path id="Pfad_107322" data-name="Pfad 107322" d="M16.664,23.819a1,1,0,0,1-.957-1.29,25.631,25.631,0,0,0,1.016-7.316,22.811,22.811,0,0,0-2.049-9.956C13.479,2.869,11.909,1.5,10.365,1.5a1,1,0,1,1,0-2c2.364,0,4.529,1.727,6.1,4.862a24.827,24.827,0,0,1,2.26,10.85,27.652,27.652,0,0,1-1.1,7.9A1,1,0,0,1,16.664,23.819Z" transform="translate(73.042 429.495)" fill="#6800d8"/>
      <path id="Pfad_107323" data-name="Pfad 107323" d="M6.182,22.907a1,1,0,0,1-.968-.752,28.019,28.019,0,0,1-.836-6.943,24.827,24.827,0,0,1,2.26-10.85C8.206,1.227,10.372-.5,12.735-.5a1,1,0,1,1,0,2c-1.544,0-3.114,1.369-4.308,3.757a22.811,22.811,0,0,0-2.049,9.956,26.389,26.389,0,0,0,.774,6.446,1,1,0,0,1-.969,1.248Z" transform="translate(70.551 429.495)" fill="#6800d8"/>
      <path id="Linie_1880" data-name="Linie 1880" d="M0,19.037a1,1,0,0,1-1-1V0A1,1,0,0,1,0-1,1,1,0,0,1,1,0V18.037A1,1,0,0,1,0,19.037Z" transform="translate(83.328 429.995)" fill="#6800d8"/>
      <path id="Linie_1881" data-name="Linie 1881" d="M27.414,1H0A1,1,0,0,1-1,0,1,1,0,0,1,0-1H27.414a1,1,0,0,1,1,1A1,1,0,0,1,27.414,1Z" transform="translate(70.616 445.299)" fill="#6800d8"/>
      <path id="Linie_1882" data-name="Linie 1882" d="M26.679,1H0A1,1,0,0,1-1,0,1,1,0,0,1,0-1H26.679a1,1,0,0,1,1,1A1,1,0,0,1,26.679,1Z" transform="translate(69.988 438.495)" fill="#6800d8"/>
      <path id="Linie_1883" data-name="Linie 1883" d="M6.315,1H0A1,1,0,0,1-1,0,1,1,0,0,1,0-1H6.315a1,1,0,0,1,1,1A1,1,0,0,1,6.315,1Z" transform="translate(89.801 451.99)" fill="#6800d8"/>
    </g>
  </g>
</svg>
