<svg xmlns="http://www.w3.org/2000/svg" width="36" height="36" viewBox="0 0 36 36">
  <g id="music_ico" transform="translate(-80 -988)">
    <rect id="Rechteck_28449" data-name="Rechteck 28449" width="36" height="36" transform="translate(80 988)" fill="#fff" opacity="0"/>
    <ellipse id="Ellipse_9834" data-name="Ellipse 9834" cx="5.5" cy="4.5" rx="5.5" ry="4.5" transform="translate(92 1014)" fill="#ece2f9"/>
    <g id="Gruppe_19783" data-name="Gruppe 19783" transform="translate(81.941 988.46)">
      <path id="Pfad_107322" data-name="Pfad 107322" d="M14.179,19.857h0c2.682,0,4.895,1.366,5.506,3.4.787,2.623-1.365,5.509-4.9,6.57a8.231,8.231,0,0,1-2.365.354c-2.617,0-4.7-1.3-5.3-3.3A4.532,4.532,0,0,1,8,22.8a7.6,7.6,0,0,1,3.891-2.6A7.943,7.943,0,0,1,14.179,19.857ZM12.421,28.18a6.232,6.232,0,0,0,1.79-.269c2.418-.726,4.015-2.556,3.558-4.079-.349-1.162-1.826-1.974-3.59-1.974h0a5.944,5.944,0,0,0-1.71.254c-2.332.7-3.9,2.62-3.432,4.191C9.374,27.425,10.734,28.18,12.421,28.18Z" transform="translate(2.016 5.314)" fill="#6800d8"/>
      <path id="Pfad_107323" data-name="Pfad 107323" d="M16.534,29.745a1,1,0,0,1-1-1V.5a1,1,0,0,1,1.483-.876c.406.224,9.943,5.555,10.459,12.133.213,2.719-1.106,5.207-3.92,7.393a1,1,0,0,1-1.227-1.579c2.281-1.772,3.313-3.623,3.153-5.657-.323-4.119-5.374-7.936-7.948-9.625V28.745A1,1,0,0,1,16.534,29.745Z" transform="translate(4.209 0.113)" fill="#6800d8"/>
      <path id="Linie_1880" data-name="Linie 1880" d="M13.774,1H0A1,1,0,0,1-1,0,1,1,0,0,1,0-1H13.774a1,1,0,0,1,1,1A1,1,0,0,1,13.774,1Z" transform="translate(0.612 7.5)" fill="#6800d8"/>
      <path id="Linie_1881" data-name="Linie 1881" d="M13.774,1H0A1,1,0,0,1-1,0,1,1,0,0,1,0-1H13.774a1,1,0,0,1,1,1A1,1,0,0,1,13.774,1Z" transform="translate(0.612 13.796)" fill="#6800d8"/>
      <path id="Linie_1882" data-name="Linie 1882" d="M13.774,1H0A1,1,0,0,1-1,0,1,1,0,0,1,0-1H13.774a1,1,0,0,1,1,1A1,1,0,0,1,13.774,1Z" transform="translate(0.612 20.092)" fill="#6800d8"/>
    </g>
  </g>
</svg>
