<svg xmlns="http://www.w3.org/2000/svg" width="36" height="36" viewBox="0 0 36 36">
  <g id="nextcloud_ico" transform="translate(-260 -988)">
    <rect id="Rechteck_28451" data-name="Rechteck 28451" width="36" height="36" transform="translate(260 988)" fill="#fff" opacity="0"/>
    <g id="Gruppe_19772" data-name="Gruppe 19772" transform="translate(-41.967 -3.837)">
      <path id="Pfad_107304" data-name="Pfad 107304" d="M303.417,994.656v8.925h33.5v-6.145l-25.163.172-1.991-3.6Z" fill="#ece2f9"/>
      <rect id="Rechteck_28452" data-name="Rechteck 28452" width="18" height="12" transform="translate(310.967 1008.837)" fill="#ece2f9"/>
      <path id="Pfad_107304-2" data-name="Pfad 107304" d="M1.9-.5H7.179C7.968-.5,8.6.136,9.424,1.767c.214.423.4.842.547,1.17H33.1a2.4,2.4,0,0,1,2.4,2.332V30.692a2.415,2.415,0,0,1-2.4,2.481H1.9A2.416,2.416,0,0,1-.5,30.692V1.832A2.4,2.4,0,0,1,1.9-.5Zm5.033,2H1.9a.4.4,0,0,0-.4.33v28.86a.429.429,0,0,0,.4.479H33.1a.429.429,0,0,0,.4-.479V5.269a.4.4,0,0,0-.4-.33H9.305a1,1,0,0,1-.931-.634A13.266,13.266,0,0,0,6.933,1.5Z" transform="translate(302.467 993.5)" fill="#6800d8"/>
      <path id="Linie_1889" data-name="Linie 1889" d="M34,1H0A1,1,0,0,1-1,0,1,1,0,0,1,0-1H34a1,1,0,0,1,0,2Z" transform="translate(302.967 1003.48)" fill="#6800d8"/>
      <path id="Pfad_107305" data-name="Pfad 107305" d="M8.073,11.524H24.456a1.611,1.611,0,0,1,1.613,1.607V24.72a1.611,1.611,0,0,1-1.613,1.607H8.073A1.611,1.611,0,0,1,6.46,24.72V13.131A1.611,1.611,0,0,1,8.073,11.524Zm15.994,2H8.462v10.8h15.6Z" transform="translate(303.676 995.589)" fill="#6800d8"/>
      <path id="Pfad_107306" data-name="Pfad 107306" d="M10.592,25.679a1,1,0,0,1-.8-1.6l5.429-7.337a1,1,0,0,1,1.606,0l1.337,1.784,2.05-3.189A1,1,0,0,1,21.87,15.3l3.458,4.922a1,1,0,0,1-1.638,1.151l-2.6-3.7-2.024,3.149a1,1,0,0,1-1.643.059l-1.395-1.861L11.4,25.273A1,1,0,0,1,10.592,25.679Z" transform="translate(304.22 996.171)" fill="#6800d8"/>
      <circle id="Ellipse_9832" data-name="Ellipse 9832" cx="2" cy="2" r="2" transform="translate(312.967 1010.837)" fill="#6800d8"/>
    </g>
  </g>
</svg>
