<svg xmlns="http://www.w3.org/2000/svg" xmlns:xlink="http://www.w3.org/1999/xlink" width="36" height="36" viewBox="0 0 36 36">
  <defs>
    <clipPath id="clip-path">
      <rect id="Rechteck_28496" data-name="Rechteck 28496" width="36" height="36" transform="translate(-3 -6)" fill="none" stroke="#707070" stroke-width="2"/>
    </clipPath>
  </defs>
  <g id="router_ico" transform="translate(3 6)">
    <g id="Gruppe_19776" data-name="Gruppe 19776" clip-path="url(#clip-path)">
      <g id="Gruppe_19778" data-name="Gruppe 19778" transform="translate(-1.5 -2.584)">
        <path id="Pfad_107320" data-name="Pfad 107320" d="M12.345,14.34a1,1,0,0,1-.665-1.747,5.94,5.94,0,0,0,0-9.018A1,1,0,0,1,13.009,2.08a8.193,8.193,0,0,1,2.055,2.784,7.826,7.826,0,0,1,.69,3.22,7.96,7.96,0,0,1-2.745,6A1,1,0,0,1,12.345,14.34Z" transform="translate(1.225 0.222)" fill="#6800d8"/>
        <path id="Pfad_107321" data-name="Pfad 107321" d="M15.158,17.109a1,1,0,0,1-.673-1.74,9.41,9.41,0,0,0,0-14.129A1,1,0,1,1,15.83-.24a11.772,11.772,0,0,1,2.884,3.975,11.3,11.3,0,0,1,0,9.139,11.774,11.774,0,0,1-2.883,3.975A1,1,0,0,1,15.158,17.109Z" transform="translate(1.516)" fill="#6800d8"/>
        <path id="Pfad_107322" data-name="Pfad 107322" d="M9.484,11.57A1,1,0,0,1,8.843,9.8a2.477,2.477,0,0,0,0-3.88,1,1,0,1,1,1.28-1.537,4.476,4.476,0,0,1,0,6.954A1,1,0,0,1,9.484,11.57Z" transform="translate(0.929 0.443)" fill="#6800d8"/>
        <rect id="Rechteck_28495" data-name="Rechteck 28495" width="32" height="9.857" rx="2" transform="translate(0.5 18.812)" fill="#ece2f9"/>
        <path id="Rechteck_28495_-_Kontur" data-name="Rechteck 28495 - Kontur" d="M2-1H30a3,3,0,0,1,3,3V7.857a3,3,0,0,1-3,3H2a3,3,0,0,1-3-3V2A3,3,0,0,1,2-1ZM30,8.857a1,1,0,0,0,1-1V2a1,1,0,0,0-1-1H2A1,1,0,0,0,1,2V7.857a1,1,0,0,0,1,1Z" transform="translate(0.5 18.812)" fill="#6800d8"/>
        <path id="Linie_1880" data-name="Linie 1880" d="M0,11.4a1,1,0,0,1-1-1V0A1,1,0,0,1,0-1,1,1,0,0,1,1,0V10.4A1,1,0,0,1,0,11.4Z" transform="translate(6.017 8.407)" fill="#6800d8"/>
        <path id="Pfad_107319" data-name="Pfad 107319" d="M27.25,22.326a1.643,1.643,0,1,1-1.644-1.642A1.643,1.643,0,0,1,27.25,22.326Z" transform="translate(2.427 1.414)" fill="#6800d8"/>
      </g>
    </g>
  </g>
</svg>
